ModelForces
version=1
nRows=4
nColumns=202
inDegrees=no

This file contains the forces exerted on a model during a simulation.

A force is a generalized force, meaning that it can be either a force (N) or a torque (Nm).

Units are S.I. units (second, meters, Newtons, ...)
Angles are in degrees.

endheader
time	glut_med1_r	glut_med2_r	glut_med3_r	glut_min1_r	glut_min2_r	glut_min3_r	semimem_r	semiten_r	bifemlh_r	bifemsh_r	sar_r	add_long_r	add_brev_r	add_mag1_r	add_mag2_r	add_mag3_r	tfl_r	pect_r	grac_r	glut_max1_r	glut_max2_r	glut_max3_r	iliacus_r	psoas_r	quad_fem_r	gem_r	peri_r	rect_fem_r	vas_med_r	vas_int_r	vas_lat_r	med_gas_r	lat_gas_r	soleus_r	tib_post_r	flex_dig_r	flex_hal_r	tib_ant_r	per_brev_r	per_long_r	per_tert_r	ext_dig_r	ext_hal_r	glut_med1_l	glut_med2_l	glut_med3_l	glut_min1_l	glut_min2_l	glut_min3_l	semimem_l	semiten_l	bifemlh_l	bifemsh_l	sar_l	add_long_l	add_brev_l	add_mag1_l	add_mag2_l	add_mag3_l	tfl_l	pect_l	grac_l	glut_max1_l	glut_max2_l	glut_max3_l	iliacus_l	psoas_l	quad_fem_l	gem_l	peri_l	rect_fem_l	vas_med_l	vas_int_l	vas_lat_l	med_gas_l	lat_gas_l	soleus_l	tib_post_l	flex_dig_l	flex_hal_l	tib_ant_l	per_brev_l	per_long_l	per_tert_l	ext_dig_l	ext_hal_l	ercspn_r	ercspn_l	intobl_r	intobl_l	extobl_r	extobl_l	femur_lat_meniscii_l.femur_lat_l.force.X	femur_lat_meniscii_l.femur_lat_l.force.Y	femur_lat_meniscii_l.femur_lat_l.force.Z	femur_lat_meniscii_l.femur_lat_l.torque.X	femur_lat_meniscii_l.femur_lat_l.torque.Y	femur_lat_meniscii_l.femur_lat_l.torque.Z	femur_lat_meniscii_l.meniscus_lat_l.force.X	femur_lat_meniscii_l.meniscus_lat_l.force.Y	femur_lat_meniscii_l.meniscus_lat_l.force.Z	femur_lat_meniscii_l.meniscus_lat_l.torque.X	femur_lat_meniscii_l.meniscus_lat_l.torque.Y	femur_lat_meniscii_l.meniscus_lat_l.torque.Z	femur_med_meniscii_l.femur_med_l.force.X	femur_med_meniscii_l.femur_med_l.force.Y	femur_med_meniscii_l.femur_med_l.force.Z	femur_med_meniscii_l.femur_med_l.torque.X	femur_med_meniscii_l.femur_med_l.torque.Y	femur_med_meniscii_l.femur_med_l.torque.Z	femur_med_meniscii_l.meniscus_med_l.force.X	femur_med_meniscii_l.meniscus_med_l.force.Y	femur_med_meniscii_l.meniscus_med_l.force.Z	femur_med_meniscii_l.meniscus_med_l.torque.X	femur_med_meniscii_l.meniscus_med_l.torque.Y	femur_med_meniscii_l.meniscus_med_l.torque.Z	femur_lat_meniscii_r.femur_lat_r.force.X	femur_lat_meniscii_r.femur_lat_r.force.Y	femur_lat_meniscii_r.femur_lat_r.force.Z	femur_lat_meniscii_r.femur_lat_r.torque.X	femur_lat_meniscii_r.femur_lat_r.torque.Y	femur_lat_meniscii_r.femur_lat_r.torque.Z	femur_lat_meniscii_r.meniscus_lat_r.force.X	femur_lat_meniscii_r.meniscus_lat_r.force.Y	femur_lat_meniscii_r.meniscus_lat_r.force.Z	femur_lat_meniscii_r.meniscus_lat_r.torque.X	femur_lat_meniscii_r.meniscus_lat_r.torque.Y	femur_lat_meniscii_r.meniscus_lat_r.torque.Z	femur_med_meniscii_r.femur_med_r.force.X	femur_med_meniscii_r.femur_med_r.force.Y	femur_med_meniscii_r.femur_med_r.force.Z	femur_med_meniscii_r.femur_med_r.torque.X	femur_med_meniscii_r.femur_med_r.torque.Y	femur_med_meniscii_r.femur_med_r.torque.Z	femur_med_meniscii_r.meniscus_med_r.force.X	femur_med_meniscii_r.meniscus_med_r.force.Y	femur_med_meniscii_r.meniscus_med_r.force.Z	femur_med_meniscii_r.meniscus_med_r.torque.X	femur_med_meniscii_r.meniscus_med_r.torque.Y	femur_med_meniscii_r.meniscus_med_r.torque.Z	femur_med_tibia_l.tibia_upper_l.force.X	femur_med_tibia_l.tibia_upper_l.force.Y	femur_med_tibia_l.tibia_upper_l.force.Z	femur_med_tibia_l.tibia_upper_l.torque.X	femur_med_tibia_l.tibia_upper_l.torque.Y	femur_med_tibia_l.tibia_upper_l.torque.Z	femur_med_tibia_l.femur_med_l.force.X	femur_med_tibia_l.femur_med_l.force.Y	femur_med_tibia_l.femur_med_l.force.Z	femur_med_tibia_l.femur_med_l.torque.X	femur_med_tibia_l.femur_med_l.torque.Y	femur_med_tibia_l.femur_med_l.torque.Z	femur_lat_tibia_l.tibia_upper_l.force.X	femur_lat_tibia_l.tibia_upper_l.force.Y	femur_lat_tibia_l.tibia_upper_l.force.Z	femur_lat_tibia_l.tibia_upper_l.torque.X	femur_lat_tibia_l.tibia_upper_l.torque.Y	femur_lat_tibia_l.tibia_upper_l.torque.Z	femur_lat_tibia_l.femur_lat_l.force.X	femur_lat_tibia_l.femur_lat_l.force.Y	femur_lat_tibia_l.femur_lat_l.force.Z	femur_lat_tibia_l.femur_lat_l.torque.X	femur_lat_tibia_l.femur_lat_l.torque.Y	femur_lat_tibia_l.femur_lat_l.torque.Z	femur_med_tibia_r.tibia_upper_r.force.X	femur_med_tibia_r.tibia_upper_r.force.Y	femur_med_tibia_r.tibia_upper_r.force.Z	femur_med_tibia_r.tibia_upper_r.torque.X	femur_med_tibia_r.tibia_upper_r.torque.Y	femur_med_tibia_r.tibia_upper_r.torque.Z	femur_med_tibia_r.femur_med_r.force.X	femur_med_tibia_r.femur_med_r.force.Y	femur_med_tibia_r.femur_med_r.force.Z	femur_med_tibia_r.femur_med_r.torque.X	femur_med_tibia_r.femur_med_r.torque.Y	femur_med_tibia_r.femur_med_r.torque.Z	femur_lat_tibia_r.tibia_upper_r.force.X	femur_lat_tibia_r.tibia_upper_r.force.Y	femur_lat_tibia_r.tibia_upper_r.force.Z	femur_lat_tibia_r.tibia_upper_r.torque.X	femur_lat_tibia_r.tibia_upper_r.torque.Y	femur_lat_tibia_r.tibia_upper_r.torque.Z	femur_lat_tibia_r.femur_lat_r.force.X	femur_lat_tibia_r.femur_lat_r.force.Y	femur_lat_tibia_r.femur_lat_r.force.Z	femur_lat_tibia_r.femur_lat_r.torque.X	femur_lat_tibia_r.femur_lat_r.torque.Y	femur_lat_tibia_r.femur_lat_r.torque.Z	aACL_R	pACL_R	aPCL_R	pPCL_R	aMCL_R	aLCL_R	aPCL_L	pPCL_L	aMCL_L	aLCL_L	ground_prescribedForce_0_fx	ground_prescribedForce_0_fy	ground_prescribedForce_0_fz
      1.03445868	      7.54557256	      5.66411433	      6.06294002	      2.65819847	      3.17814904	      3.19173787	      7.11613661	      4.07805855	      7.04589222	      6.97382547	      1.52718177	      5.61163844	      0.00000000	      2.91808566	      2.45300132	      3.98614889	      4.55654943	      2.23808917	      1.55458710	      3.65501745	      5.55439300	      4.14619217	     22.64463329	     12.96351726	      3.62564687	      2.85383671	      4.08820497	     11.69551299	      9.99974650	     10.29330645	     13.53884733	      3.20152802	      2.25762727	     10.42457688	     15.58533683	      3.22417169	      2.82093645	     15.89470316	      4.07590099	      8.73749951	     11.20168507	      9.26751927	      2.20641126	      7.54557256	      5.66411433	      6.06294002	      2.65819847	      3.17814904	      3.19173787	      8.74178192	      4.08196032	      7.68001761	      7.21397534	      1.51932370	      5.61163844	      0.00000000	      2.91808566	      2.45300132	      3.98614889	      4.09621245	      2.23808917	      1.55826453	      3.65501745	      5.55439300	      4.14619217	     22.64463329	     12.96351726	      3.62564687	      2.85383671	      4.08820497	     10.66330868	      6.59073299	      7.56005466	      8.12911405	     13.94478722	      6.47487818	     31.07309556	     42.35404629	      2.26484996	      2.72749550	      8.44889374	      4.33230434	     12.44248647	      2.00536692	      5.49785822	      1.73315898	     24.99964026	     24.99964026	      8.99742675	      8.99742675	     26.80229769	     26.80229769	      2.76307435	     50.99597937	     -9.56042239	      5.21997485	     -0.02578839	      1.48581788	     -2.76307435	    -50.99597937	      9.56042239	     -1.74637766	      0.02558040	     -0.48301696	     -3.31599387	     20.97615968	     -3.40468921	      0.94473225	     -0.02138609	     -1.00501789	      3.31599387	    -20.97615968	      3.40468921	      0.28075727	      0.00368718	     -0.29758878	     68.18078684	    193.56820958	     43.97685772	    -23.01517733	      1.60028991	     28.58466971	    -68.18078684	   -193.56820958	    -43.97685772	      6.98665939	     -2.48775841	      0.17187907	     51.06947565	     56.00794315	     -6.10696647	      3.57521884	     -0.94702474	     21.21166030	    -51.06947565	    -56.00794315	      6.10696647	     -0.89771407	      0.74039442	     -0.71607931	      0.00000000	      0.00000000	      0.00000000	      0.00000000	      0.00000000	      0.00000000	      0.00000000	      0.00000000	      0.00000000	      0.00000000	      0.00000000	      0.00000000	      0.00000000	      0.00000000	      0.00000000	      0.00000000	      0.00000000	      0.00000000	      0.00000000	      0.00000000	      0.00000000	      0.00000000	      0.00000000	      0.00000000	      0.00000000	      0.00000000	      0.00000000	      0.00000000	      0.00000000	      0.00000000	      0.00000000	      0.00000000	      0.00000000	      0.00000000	      0.00000000	      0.00000000	      0.00000000	      0.00000000	      0.00000000	      0.00000000	      0.00000000	      0.00000000	      0.00000000	      0.00000000	      0.00000000	      0.00000000	      0.00000000	      0.00000000	     33.56901327	     64.57684169	      0.00000000	     15.45369007	     10.68715459	    106.12437305	      0.00000000	      0.00000000	      0.00000001	      0.00000000	    103.36618800	    -37.62220000	      0.00000000
      1.03523273	      7.54557205	      5.66411398	      6.06293963	      2.65819831	      3.17814887	      3.19173766	      7.11843705	      4.07879695	      7.04584400	      6.97414257	      1.52716729	      5.61163809	      0.00000000	      2.91808548	      2.45300116	      3.98614861	      4.55653146	      2.23808903	      1.55477334	      3.65501722	      5.55439265	      4.14619191	     22.64463265	     12.96351654	      3.62564664	      2.85383661	      4.08820455	     11.69762545	     10.00439588	     10.29742287	     13.54334527	      3.20137991	      2.25719418	     10.42015086	     15.60041759	      3.22569359	      2.82820261	     15.89624500	      4.07597128	      8.73619451	     11.20095941	      9.26189032	      2.19976405	      7.54557205	      5.66411398	      6.06293963	      2.65819831	      3.17814887	      3.19173766	      8.74178117	      4.08196005	      7.68001699	      7.21397490	      1.51932361	      5.61163809	      2.93436120	      2.91808548	      2.45300116	      3.98614861	      4.09621228	      2.23808903	      1.55826444	      3.65501722	      5.55439265	      4.14619191	     22.64463265	     12.96351654	      3.62564664	      2.85383661	      4.08820455	     10.66330783	      6.59073257	      7.56005416	      8.12911352	     13.94478522	      6.47487725	     31.07309240	     42.35404506	      2.26371275	      2.72722262	      8.44889310	      4.33230395	     12.44248552	      2.00536681	      5.49825741	      1.73322285	     24.99963876	     24.99963876	      8.99742616	      8.99742616	     26.80229717	     26.80229717	      2.76307435	     50.99597937	     -9.56042239	      5.21997485	     -0.02578839	      1.48581788	     -2.76307435	    -50.99597937	      9.56042239	     -1.74637766	      0.02558040	     -0.48301696	     -3.31599387	     20.97615968	     -3.40468921	      0.94473225	     -0.02138609	     -1.00501789	      3.31599387	    -20.97615968	      3.40468921	      0.28075727	      0.00368718	     -0.29758878	     68.08499161	    193.73184475	     44.02852054	    -23.04118137	      1.59763311	     28.54399890	    -68.08499161	   -193.73184475	    -44.02852054	      6.99346404	     -2.48520416	      0.17737220	     51.02459064	     55.95948272	     -6.10370591	      3.57295799	     -0.94618315	     21.19303952	    -51.02459064	    -55.95948272	      6.10370591	     -0.89698291	      0.73976324	     -0.71541764	      0.00000000	      0.00000000	      0.00000000	      0.00000000	      0.00000000	      0.00000000	      0.00000000	      0.00000000	      0.00000000	      0.00000000	      0.00000000	      0.00000000	      0.00000000	      0.00000000	      0.00000000	      0.00000000	      0.00000000	      0.00000000	      0.00000000	      0.00000000	      0.00000000	      0.00000000	      0.00000000	      0.00000000	      0.00000000	      0.00000000	      0.00000000	      0.00000000	      0.00000000	      0.00000000	      0.00000000	      0.00000000	      0.00000000	      0.00000000	      0.00000000	      0.00000000	      0.00000000	      0.00000000	      0.00000000	      0.00000000	      0.00000000	      0.00000000	      0.00000000	      0.00000000	      0.00000000	      0.00000000	      0.00000000	      0.00000000	     33.57464128	     64.59105501	      0.00000000	     15.46223747	     10.69378900	    106.10944695	      0.00000000	      0.00000000	      0.00000001	      0.00000000	    103.36618800	    -37.62220000	      0.00000000
      1.03777730	      7.54557039	      5.66411284	      6.06293840	      2.65819780	      3.17814831	      3.19173696	      7.12512669	      4.08071438	      7.04499545	      6.97326262	      1.52711528	      5.61163695	      0.00000000	      2.91808490	      2.45300066	      3.98614770	      4.55633350	      2.23808860	      1.55510548	      3.65501648	      5.55439154	      4.14619106	     22.64463058	     12.96351422	      3.62564593	      2.85383627	      4.08820321	     11.70349530	     10.01630791	     10.30786149	     13.55433878	      3.19970477	      2.25481996	     10.40290280	     15.64571200	      3.23021932	      2.85262953	     15.90151339	      4.07716654	      8.73308743	     11.19956027	      9.24217628	      2.17696670	      7.54557039	      5.66411284	      6.06293840	      2.65819780	      3.17814831	      3.19173696	      8.74177876	      4.08195916	      7.68001498	      7.21397348	      1.51932331	      5.61163695	     22.96778376	      2.91808490	      2.45300066	      3.98614770	      4.09621172	      2.23808860	      1.55826413	      3.65501648	      5.55439154	      4.14619106	     22.64463058	     12.96351422	      3.62564593	      2.85383627	      4.08820321	     10.66330510	      6.59073121	      7.56005258	      8.12911183	     13.94477880	      6.47487426	     31.07308221	     42.35404109	      2.25996106	      2.72632966	      8.44889105	      4.33230272	     12.44248246	      2.00536645	      5.49956965	      1.73343089	     24.99963394	     24.99963394	      8.99742427	      8.99742427	     26.80229547	     26.80229547	      2.76307435	     50.99597937	     -9.56042239	      5.21997485	     -0.02578839	      1.48581788	     -2.76307435	    -50.99597937	      9.56042239	     -1.74637766	      0.02558040	     -0.48301696	     -3.31599387	     20.97615968	     -3.40468921	      0.94473225	     -0.02138609	     -1.00501789	      3.31599387	    -20.97615968	      3.40468921	      0.28075727	      0.00368718	     -0.29758878	     68.24715149	    193.93607748	     44.05162987	    -23.05556929	      1.60133623	     28.61269707	    -68.24715149	   -193.93607748	    -44.05162987	      6.99992780	     -2.49012424	      0.17442980	     50.86774881	     55.79661446	     -6.08877885	      3.56368841	     -0.94322640	     21.12793279	    -50.86774881	    -55.79661446	      6.08877885	     -0.89439327	      0.73749617	     -0.71300432	      0.00000000	      0.00000000	      0.00000000	      0.00000000	      0.00000000	      0.00000000	      0.00000000	      0.00000000	      0.00000000	      0.00000000	      0.00000000	      0.00000000	      0.00000000	      0.00000000	      0.00000000	      0.00000000	      0.00000000	      0.00000000	      0.00000000	      0.00000000	      0.00000000	      0.00000000	      0.00000000	      0.00000000	      0.00000000	      0.00000000	      0.00000000	      0.00000000	      0.00000000	      0.00000000	      0.00000000	      0.00000000	      0.00000000	      0.00000000	      0.00000000	      0.00000000	      0.00000000	      0.00000000	      0.00000000	      0.00000000	      0.00000000	      0.00000000	      0.00000000	      0.00000000	      0.00000000	      0.00000000	      0.00000000	      0.00000000	     33.58522028	     64.62789590	      0.00000000	     15.48526090	     10.70648687	    106.05088585	      0.00000000	      0.00000000	      0.00000001	      0.00000000	    103.36618800	    -37.62220000	      0.00000000
      1.04468145	      7.54556617	      5.66410993	      6.06293525	      2.65819649	      3.17814690	      3.19173518	      7.13878565	      4.08363884	      7.03841365	      6.96407018	      1.52698057	      5.61163403	      0.00000000	      2.91808341	      2.45299938	      3.98614540	      4.55555977	      2.23808749	      1.55536087	      3.65501461	      5.55438868	      4.14618888	     22.64462531	     12.96350829	      3.62564411	      2.85383542	      4.08819978	     11.71357734	     10.03478329	     10.32353510	     13.56720137	      3.18942203	      2.24238121	     10.33922436	     15.73263253	      3.23820025	      2.92178458	     15.91543130	      4.08814409	      8.73479722	     11.20606020	      9.18972340	      2.10863428	      7.54556617	      5.66410993	      6.06293525	      2.65819649	      3.17814690	      3.19173518	      8.74177260	      4.08195690	      7.68000986	      7.21396985	      1.51932257	      5.61163403	      0.00000000	      2.91808341	      2.45299938	      3.98614540	      4.09621030	      2.23808749	      1.55826336	      3.65501461	      5.55438868	      4.14618888	     22.64462531	     12.96350829	      3.62564411	      2.85383542	      4.08819978	     10.66329814	      6.59072775	      7.56004853	      8.12910750	     13.94476238	      6.47486663	     31.07305621	     42.35403096	      2.24967818	      2.72393984	      8.44888581	      4.33229957	     12.44247465	      2.00536553	      5.50312933	      1.73397988	     24.99962161	     24.99962161	      8.99741944	      8.99741944	     26.80229113	     26.80229113	      2.76307435	     50.99597937	     -9.56042239	      5.21997485	     -0.02578839	      1.48581788	     -2.76307435	    -50.99597937	      9.56042239	     -1.74637766	      0.02558040	     -0.48301696	     -3.31599387	     20.97615968	     -3.40468921	      0.94473225	     -0.02138609	     -1.00501789	      3.31599387	    -20.97615968	      3.40468921	      0.28075727	      0.00368718	     -0.29758878	     68.57439629	    194.59800936	     44.22868706	    -23.14538098	      1.60869947	     28.75113436	    -68.57439629	   -194.59800936	    -44.22868706	      7.02457619	     -2.50155437	      0.17177355	     50.36911396	     55.28218828	     -6.01991891	      3.52526969	     -0.93371931	     20.92085679	    -50.36911396	    -55.28218828	      6.01991891	     -0.88546551	      0.72988020	     -0.70531449	      0.00000000	      0.00000000	      0.00000000	      0.00000000	      0.00000000	      0.00000000	      0.00000000	      0.00000000	      0.00000000	      0.00000000	      0.00000000	      0.00000000	      0.00000000	      0.00000000	      0.00000000	      0.00000000	      0.00000000	      0.00000000	      0.00000000	      0.00000000	      0.00000000	      0.00000000	      0.00000000	      0.00000000	      0.00000000	      0.00000000	      0.00000000	      0.00000000	      0.00000000	      0.00000000	      0.00000000	      0.00000000	      0.00000000	      0.00000000	      0.00000000	      0.00000000	      0.00000000	      0.00000000	      0.00000000	      0.00000000	      0.00000000	      0.00000000	      0.00000000	      0.00000000	      0.00000000	      0.00000000	      0.00000000	      0.00000000	     33.57728115	     64.68562153	      0.00000000	     15.44427145	     10.65440586	    105.77960786	      0.00000000	      0.00000000	      0.00000001	      0.00000000	    103.36618800	    -37.62220000	      0.00000000
